# xmcd CD database file
#
# Track frame offsets:
#	150
#	24985
#	40362
#	65197
#
# Disc length: 1070 seconds
#
# Revision: 1
# Processed by: cddbd v1.5.1PL0 Copyright (c) Steve Scherf et al.
# Submitted via: CDex 1.50beta8
#
DISCID=32042c04
DTITLE=w-inds. - 十六夜の月
DYEAR=2005
DGENRE=JPop
TTITLE0=十六夜の月
TTITLE1=ジレンマ
TTITLE2=十六夜の月 (Instrumental)
TTITLE3=ジレンマ (Instrumental)
EXTD=YEAR: 2005
EXTT0=
EXTT1=
EXTT2=
EXTT3=
PLAYORDER=
